<svg version="1.1" id="Layer_1" xmlns="http://www.w3.org/2000/svg" xmlns:xlink="http://www.w3.org/1999/xlink" x="0px" y="0px"
	 width="100%" viewBox="0 0 1024 800" enable-background="new 0 0 1024 800" xml:space="preserve">
<path fill="#000000" opacity="1.000000" stroke="none" 
	d="
M257.000671,446.401611 
	C251.667755,446.391083 246.832397,446.284546 242.002319,446.399719 
	C238.343842,446.486908 236.838165,444.694977 236.853638,441.250641 
	C236.879089,435.584686 236.911301,429.918701 236.936005,424.252747 
	C236.953094,420.332153 238.786819,418.681458 242.826141,418.663788 
	C256.652954,418.603394 270.478546,418.164703 284.304871,418.150970 
	C288.615021,418.146667 290.113861,416.682434 290.119995,412.328064 
	C290.170990,376.169159 291.025787,339.999664 290.390533,303.855255 
	C289.871979,274.351013 291.170410,244.879105 290.618073,215.393433 
	C290.554810,212.017731 291.214630,209.628845 295.050415,208.827560 
	C313.292694,205.016769 331.482300,200.950623 349.743134,197.233139 
	C358.456451,195.459335 364.720795,199.253143 363.693848,207.300995 
	C361.487030,224.595810 370.334015,237.451279 378.747589,250.531723 
	C393.379822,273.280243 409.627808,294.818329 429.293365,313.561218 
	C448.386780,331.758881 469.981415,346.186951 493.743835,357.719727 
	C507.909363,364.594727 521.465271,362.984039 535.359680,358.162689 
	C569.636719,346.268616 598.388245,326.028931 623.142700,299.802582 
	C636.213562,285.954498 647.586609,270.789764 658.445251,255.162643 
	C663.556030,247.807587 662.968445,239.704712 663.570129,231.700470 
	C664.123657,224.336227 664.039856,224.028122 671.248047,222.684906 
	C688.750610,219.423355 706.252747,216.158859 723.765625,212.953461 
	C732.611511,211.334381 736.983398,214.559738 738.085938,223.573395 
	C738.407776,226.204956 738.268860,228.898117 738.268677,231.563049 
	C738.264587,291.560791 738.248901,351.558533 738.239685,411.556274 
	C738.238586,418.637970 738.249695,418.634613 745.374268,418.645874 
	C757.871887,418.665649 770.372375,418.850250 782.865784,418.632721 
	C787.801575,418.546814 789.989197,420.580322 790.041870,425.293030 
	C790.101440,430.624756 790.066956,435.957733 790.150513,441.288940 
	C790.211548,445.183868 788.265442,446.453613 784.537109,446.421173 
	C770.872070,446.302185 757.202942,446.522522 743.540527,446.300049 
	C739.309265,446.231171 738.130798,447.719818 738.172302,451.782104 
	C738.349548,469.112854 738.265137,486.446411 738.245667,503.778900 
	C738.243469,505.712616 738.613831,507.730042 737.473694,509.850677 
	C733.276855,508.852386 730.654480,505.649536 727.460815,503.468079 
	C710.403015,491.816498 710.409119,491.772858 709.903015,471.078156 
	C709.744080,464.581024 709.600708,458.076477 709.743164,451.581726 
	C709.826050,447.805023 708.661804,445.976288 704.612915,446.279205 
	C701.297974,446.527191 697.938477,446.514343 694.620056,446.295135 
	C690.755737,446.039795 689.215332,447.519562 689.308411,451.455322 
	C689.504639,459.755646 689.153259,468.046570 687.891785,476.127625 
	C686.223816,477.040070 685.106384,476.141632 683.964783,475.528107 
	C681.470642,474.187714 679.131958,472.429413 676.497498,471.501312 
	C666.335327,467.921204 660.135315,462.083496 662.619812,450.198578 
	C663.358582,446.664520 660.427429,446.325165 657.723816,446.334198 
	C648.390930,446.365295 639.012695,445.797272 629.736084,446.527802 
	C617.249939,447.511017 605.684875,443.695404 593.881165,441.049438 
	C545.940002,430.302734 497.876282,430.338562 450.276367,441.816681 
	C432.216827,446.171509 414.402985,446.218445 396.311432,446.360657 
	C386.979095,446.433990 377.642853,446.490662 368.313965,446.292114 
	C364.606476,446.213257 363.235596,447.557495 363.341736,451.215607 
	C363.520508,457.376862 363.253662,463.552063 363.474304,469.710632 
	C363.582672,472.735565 362.697266,474.643738 359.986725,476.167999 
	C336.670502,489.279907 314.906616,504.586426 295.013885,522.510376 
	C294.080261,523.351685 293.305328,524.664490 291.549866,524.195007 
	C290.066284,522.551025 290.728363,520.459717 290.704529,518.564209 
	C290.431702,496.904755 290.230164,475.244446 290.001862,453.584412 
	C289.929657,446.735443 289.559509,446.382294 282.495117,446.380890 
	C274.163574,446.379211 265.832031,446.393524 257.000671,446.401611 
M701.049133,338.389374 
	C689.808105,340.365417 687.926270,342.434326 688.109680,353.820160 
	C688.433716,373.934082 689.019287,394.043823 689.329407,414.157867 
	C689.383789,417.678406 690.726318,418.893555 694.089783,418.752502 
	C698.074829,418.585388 702.078064,418.564392 706.061890,418.740326 
	C709.528625,418.893341 710.662720,417.454620 710.743835,414.049042 
	C711.262207,392.275848 712.030640,370.508667 712.550537,348.735535 
	C712.808228,337.944946 712.648071,337.941132 701.049133,338.389374 
M380.634857,352.500366 
	C380.649689,346.005188 380.658356,339.510010 380.680939,333.014862 
	C380.711456,324.237640 373.189240,313.659241 364.604523,310.473969 
	C363.702118,312.367401 364.082001,314.392609 364.077789,316.348053 
	C364.012451,346.659210 363.966248,376.970520 363.962402,407.281769 
	C363.960938,418.905792 362.486481,417.761749 374.684387,417.993713 
	C379.210266,418.079742 380.788422,416.592041 380.737274,411.957031 
	C380.522247,392.473480 380.640717,372.986237 380.634857,352.500366 
M405.500122,347.999207 
	C404.793365,339.599304 396.897125,338.468079 391.667023,334.224518 
	C391.048462,338.039795 391.051544,341.629700 391.047974,345.219604 
	C391.026123,367.185455 390.979950,389.151306 391.014801,411.117065 
	C391.018311,413.338684 390.412537,415.975067 393.035675,417.355011 
	C399.077087,420.533234 404.920441,417.001526 405.043427,410.205536 
	C405.413727,389.745728 404.449219,369.275543 405.500122,347.999207 
M646.687683,377.500061 
	C646.687683,363.793457 646.687683,350.086823 646.687683,336.097931 
	C638.223267,338.598175 633.966064,342.896484 633.958435,348.457947 
	C633.929382,369.582642 634.036560,390.707886 633.903259,411.831757 
	C633.875305,416.263031 635.254211,418.164032 639.924500,417.897827 
	C645.922729,417.555969 646.658020,417.156677 646.675232,411.435547 
	C646.708130,400.457153 646.685913,389.478577 646.687683,377.500061 
M430.842163,383.500000 
	C430.853088,378.347473 430.415009,373.144775 430.983398,368.054504 
	C431.774139,360.972534 429.511261,356.590668 422.652344,353.827515 
	C416.497223,351.347900 415.445038,351.480255 415.415741,358.155853 
	C415.338440,375.773773 415.334351,393.392212 415.352570,411.010376 
	C415.359100,417.320587 415.904053,417.797974 422.191162,417.834717 
	C423.188354,417.840546 424.194489,417.735657 425.181366,417.834015 
	C429.616699,418.275879 430.961670,416.099762 430.878693,411.923584 
	C430.697144,402.785767 430.834015,393.641571 430.842163,383.500000 
M322.569672,270.549194 
	C319.615295,263.524475 319.742798,256.532654 323.371002,249.850571 
	C327.024139,243.122574 333.230682,239.491257 340.837463,237.294189 
	C330.204041,232.712311 317.903229,236.472961 310.647797,246.078903 
	C303.995239,254.886703 304.406067,268.771271 311.584839,277.746368 
	C318.783417,286.746216 330.954102,290.140961 340.706177,285.644257 
	C332.763763,283.115173 326.463196,278.831421 322.569672,270.549194 
M611.031189,376.501190 
	C611.021667,380.824005 611.007446,385.146820 611.003479,389.469635 
	C610.996704,396.951355 611.089844,404.434662 610.960876,411.914215 
	C610.872986,417.010376 613.784729,417.806549 618.045044,417.862122 
	C622.326843,417.917999 624.091736,416.436218 623.846680,412.046356 
	C623.569153,407.073761 623.775085,402.074127 623.772095,397.086273 
	C623.764343,383.951569 623.789612,370.816711 623.735107,357.682190 
	C623.710876,351.846191 622.646667,351.496368 617.236572,353.954987 
	C612.222107,356.233795 610.427124,359.729309 610.938782,365.033752 
	C611.272583,368.494019 611.020630,372.010742 611.031189,376.501190 
M593.529846,417.798523 
	C596.452393,417.440338 600.622864,418.775818 600.673096,413.860992 
	C600.832947,398.230530 600.746765,382.597290 600.702881,366.965302 
	C600.697815,365.171967 600.080017,363.734650 597.794373,363.760406 
	C591.069153,363.836212 586.532532,368.090210 586.468262,374.816040 
	C586.352295,386.955902 586.479675,399.098236 586.343262,411.237732 
	C586.292969,415.715027 587.714966,418.341675 593.529846,417.798523 
M441.085205,399.497833 
	C441.093170,403.663452 441.019440,407.831238 441.129089,411.994202 
	C441.277252,417.620544 441.662384,417.628082 448.889374,417.861664 
	C453.341766,418.005585 455.181335,416.650909 455.087067,411.974915 
	C454.848572,400.148895 454.980804,388.315277 454.975891,376.484711 
	C454.972290,367.832703 454.927979,367.983337 446.532013,365.066406 
	C442.374695,363.622040 441.064178,364.918335 441.097839,369.006042 
	C441.178741,378.836304 441.100616,388.667816 441.085205,399.497833 
M465.195740,412.247345 
	C464.607269,416.671600 466.656769,418.379791 470.935272,417.905396 
	C472.087799,417.777618 473.275696,417.785400 474.430908,417.898773 
	C478.519165,418.300018 480.043915,416.580658 479.946991,412.424622 
	C479.717804,402.597809 479.971619,392.760559 479.812653,382.931061 
	C479.646881,372.679871 481.853455,374.374786 470.404144,371.887146 
	C466.146362,370.962036 465.067688,372.378601 465.112488,376.313446 
	C465.245178,387.977081 465.178558,399.642975 465.195740,412.247345 
M376.852142,305.479614 
	C378.001556,306.163147 378.541260,308.056274 380.676910,307.275146 
	C380.676910,297.155029 380.688934,287.026825 380.657776,276.898773 
	C380.654785,275.920227 380.671448,274.764648 380.193176,273.991882 
	C375.270874,266.038055 370.248322,258.146271 365.253693,250.237183 
	C364.098450,259.218323 364.108246,267.805511 364.096375,276.392700 
	C364.073029,293.276733 364.068054,293.276733 376.852142,305.479614 
M563.324585,414.872437 
	C564.959290,419.946503 569.166565,417.173431 572.227539,417.673615 
	C575.286438,418.173462 576.757141,416.572937 576.738281,413.348083 
	C576.665344,400.882233 576.722290,388.415649 576.703125,375.949371 
	C576.701111,374.636780 576.703979,373.285278 575.294983,372.464966 
	C571.156067,370.055237 563.246277,374.327362 563.231140,379.084106 
	C563.194092,390.718994 563.241943,402.354218 563.324585,414.872437 
M514.333435,407.426880 
	C514.332642,408.757019 514.324280,410.087250 514.332458,411.417328 
	C514.370667,417.637909 514.523376,417.787445 520.818909,417.794464 
	C521.650208,417.795410 522.489380,417.701385 523.311462,417.784393 
	C527.420105,418.199371 528.890747,416.371826 528.811462,412.283508 
	C528.614868,402.144958 528.673279,391.999512 528.773315,381.858276 
	C528.802979,378.852356 527.977295,377.073486 524.647827,377.076477 
	C523.337341,377.077637 522.033081,376.614227 520.714539,376.460663 
	C514.870972,375.779999 514.349365,376.219788 514.332153,382.007324 
	C514.307861,390.154388 514.331787,398.301575 514.333435,407.426880 
M662.761963,333.525635 
	C662.434265,329.515259 663.459961,325.404999 662.234741,321.262299 
	C658.083618,323.526123 656.844604,326.727448 656.852112,330.960388 
	C656.884338,349.095398 656.709839,367.230835 656.600098,385.366058 
	C656.541687,395.015900 656.466003,404.665680 656.387573,414.315399 
	C656.370300,416.444031 657.074707,417.857483 659.503662,417.866089 
	C661.886169,417.874542 662.729309,416.578461 662.693970,414.394104 
	C662.672424,413.063507 662.723938,411.731903 662.724609,410.400757 
	C662.736877,385.105957 662.746460,359.811127 662.761963,333.525635 
M700.334106,313.811523 
	C713.805542,312.042480 712.678833,314.020264 712.632446,300.428955 
	C712.630188,299.763580 712.643799,299.098175 712.649658,298.432770 
	C712.747131,287.379333 712.073975,286.809814 701.016663,288.591034 
	C690.794067,290.237793 688.299927,293.126312 688.267883,303.355804 
	C688.233459,314.355103 688.233459,314.355103 700.334106,313.811523 
M497.394989,417.749512 
	C503.861481,417.475739 503.987885,417.377594 504.011383,410.761353 
	C504.043365,401.766357 504.022552,392.771179 504.016449,383.776062 
	C504.010651,375.194183 503.994934,375.448578 495.676025,375.081299 
	C491.081268,374.878448 489.942871,376.677979 490.016663,380.871002 
	C490.195374,391.028625 490.249878,401.198914 489.926117,411.350464 
	C489.765808,416.377472 491.449646,418.548706 497.394989,417.749512 
M552.171875,416.508514 
	C553.008545,415.157501 552.922974,413.635773 552.927429,412.149414 
	C552.957458,402.007507 552.949463,391.865417 552.986206,381.723541 
	C552.997314,378.665009 552.839233,376.146332 548.549255,376.314484 
	C540.896545,376.614380 539.121216,377.407043 539.067688,381.961304 
	C538.968018,390.439484 539.042419,398.919617 539.019348,407.398865 
	C538.989014,418.563599 540.214172,419.519440 552.171875,416.508514 
M710.698425,247.175156 
	C712.547668,240.984802 710.516602,238.695251 704.221619,239.873917 
	C688.405090,242.835373 687.931885,243.409225 688.046997,259.490814 
	C688.049377,259.822479 687.999207,260.163483 688.058594,260.484344 
	C688.488892,262.807587 686.898743,266.069214 689.653809,267.246979 
	C692.281494,268.370300 695.210327,266.850098 697.613953,265.417542 
	C699.120911,264.519379 700.428345,263.063690 701.435974,261.591736 
	C704.524597,257.079773 707.425354,252.439240 710.698425,247.175156 
M398.674927,324.770172 
	C400.409454,325.898376 401.710114,327.895447 404.125946,327.626556 
	C407.494507,312.410767 404.868530,299.264130 391.013245,289.338837 
	C391.013245,296.208832 391.430695,302.818207 390.897034,309.349854 
	C390.352448,316.015198 392.324768,320.965515 398.674927,324.770172 
M646.751953,296.898132 
	C646.529114,295.152710 647.159241,293.296967 646.034790,291.367493 
	C644.029053,293.565155 642.315613,295.818146 640.236206,297.657379 
	C630.091492,306.630432 635.067017,318.037933 634.055847,329.565796 
	C641.945496,324.637421 648.501404,320.628815 646.877686,310.774109 
	C646.182556,306.555542 646.755127,302.128082 646.751953,296.898132 
M430.618439,331.432404 
	C427.267914,325.740356 421.389465,322.768280 416.564209,317.227814 
	C415.176666,323.792450 415.091797,329.172424 415.714203,334.588989 
	C415.915985,336.344910 416.797333,337.742218 418.400024,338.532471 
	C422.044128,340.329346 425.430023,345.481384 429.015686,343.756958 
	C432.927765,341.875580 430.285980,336.229309 430.618439,331.432404 
M623.815369,321.134979 
	C623.523804,319.811737 624.426331,318.112793 622.746399,317.280518 
	C613.347046,321.982513 609.394348,329.519257 610.600891,339.797791 
	C610.940857,342.693481 612.183350,344.201630 615.210205,342.556458 
	C620.414307,339.727905 625.366272,336.810486 623.905029,329.418152 
	C623.432861,327.029266 623.822083,324.470123 623.815369,321.134979 
M660.376465,272.261566 
	C658.906372,274.455444 656.631470,276.420593 656.582825,279.149719 
	C656.400208,289.381775 656.509705,299.619019 656.509705,311.180420 
	C659.233093,308.143677 662.280884,306.608521 662.391968,303.763550 
	C662.806274,293.157532 662.808960,282.531006 662.737732,271.913727 
	C662.721130,269.432770 661.508301,270.861664 660.376465,272.261566 
M600.312073,349.380737 
	C601.086792,346.434143 600.721619,343.432831 600.684692,340.455414 
	C600.661560,338.589447 599.918274,336.734100 597.712097,337.917297 
	C593.925476,339.948151 589.989014,342.049591 587.472900,345.659241 
	C585.792664,348.069733 585.551575,351.253052 587.391418,353.638336 
	C589.251282,356.049530 591.703430,354.017975 593.764099,353.287262 
	C595.935181,352.517426 598.152039,351.703430 600.312073,349.380737 
M453.011414,347.730255 
	C449.470123,345.461517 446.674072,341.991180 442.407501,340.749908 
	C438.940460,350.539124 441.610840,352.972351 454.125183,355.158966 
	C455.177673,352.754059 455.351562,350.434998 453.011414,347.730255 
M576.536133,355.910736 
	C576.330627,354.900513 575.970337,353.915619 574.889526,353.632141 
	C572.244507,352.938293 564.877808,357.768860 563.800537,360.832886 
	C568.985901,362.618011 574.678467,360.740448 576.536133,355.910736 
M470.139069,360.728241 
	C470.893921,360.728241 471.648804,360.728241 473.534943,360.728241 
	C470.611267,358.356415 468.539948,356.848541 465.672729,356.133026 
	C464.914276,359.745331 467.228638,360.172638 470.139069,360.728241 
z"/>
<path fill="#000000" opacity="1.000000" stroke="none" 
	d="
M725.956787,513.007202 
	C755.156555,535.628845 779.839783,561.928589 799.846191,592.385803 
	C798.230835,594.865356 796.209717,594.156860 794.505920,594.160828 
	C773.840515,594.208740 753.173767,594.073059 732.510254,594.276062 
	C728.391724,594.316528 726.057861,592.726257 724.148376,589.376465 
	C703.069275,552.398499 674.310425,522.912598 637.797485,500.993195 
	C610.126160,484.381561 580.384766,473.591248 548.245544,470.319824 
	C480.749084,463.449432 422.244293,484.407593 371.312256,528.371033 
	C351.375366,545.580139 335.909363,566.316406 322.900269,588.989136 
	C320.585388,593.023560 317.970856,594.415344 313.402679,594.357178 
	C293.573456,594.104614 273.739502,594.237061 253.907364,594.186340 
	C251.781754,594.180847 249.572388,594.604919 247.492859,593.458679 
	C246.586823,591.135864 248.384995,589.728577 249.426117,588.172729 
	C277.640869,546.008972 314.392914,512.996155 357.806580,487.122467 
	C389.304260,468.350464 423.080902,455.475677 458.986786,448.242126 
	C496.036652,440.778046 533.185669,439.660248 570.703918,445.335205 
	C628.461121,454.071442 679.544128,477.610046 725.956787,513.007202 
z"/>
</svg>